<?xml version="1.0" standalone="no"?>
<!DOCTYPE svg PUBLIC "-//W3C//DTD SVG 20010904//EN"
 "http://www.w3.org/TR/2001/REC-SVG-20010904/DTD/svg10.dtd">
<svg version="1.0" xmlns="http://www.w3.org/2000/svg"
 width="1049.000000pt" height="1024.000000pt" viewBox="0 0 1049.000000 1024.000000"
 preserveAspectRatio="xMidYMid meet">

<g transform="translate(0.000000,1024.000000) scale(0.100000,-0.100000)"
fill="#000000" stroke="none">
<path d="M4691 8610 c-19 -3 -38 -12 -42 -20 -5 -8 -42 -71 -82 -140 -40 -69
-104 -181 -142 -250 -38 -69 -77 -141 -88 -160 -11 -19 -28 -47 -38 -62 -11
-14 -19 -29 -19 -33 0 -4 -14 -31 -32 -59 -17 -28 -54 -94 -81 -146 -57 -108
-67 -125 -119 -204 -21 -31 -38 -59 -38 -63 0 -3 -14 -28 -31 -56 -19 -31 -29
-58 -25 -70 4 -15 -9 -36 -45 -75 -48 -52 -59 -70 -121 -185 -30 -55 -35 -83
-16 -89 17 -6 0 -28 -22 -28 -19 0 -86 -95 -170 -240 -23 -41 -48 -82 -55 -90
-7 -8 -19 -33 -26 -55 -8 -22 -21 -51 -30 -65 -36 -55 -55 -87 -82 -140 -15
-30 -39 -73 -52 -95 -14 -22 -28 -47 -32 -55 -4 -8 -14 -20 -23 -27 -10 -7
-27 -35 -39 -64 -12 -28 -49 -92 -82 -143 -32 -50 -59 -98 -59 -107 0 -9 -11
-32 -24 -52 -38 -55 -106 -188 -106 -206 0 -9 -9 -22 -21 -29 -31 -20 -63
-102 -39 -102 6 0 10 6 10 14 0 13 20 26 41 26 5 0 9 -7 9 -15 0 -18 -43 -47
-72 -49 -34 -2 -32 -22 3 -36 30 -13 33 -12 50 11 35 45 41 50 52 46 7 -2 15
-20 18 -40 5 -30 2 -38 -13 -43 -30 -9 -41 -40 -27 -78 10 -27 9 -37 -6 -59
-9 -15 -21 -27 -25 -27 -26 0 -150 -119 -150 -143 0 -26 39 -56 72 -57 40 0
41 -13 2 -39 -41 -28 -47 -68 -11 -73 14 -2 23 -11 25 -26 4 -27 -22 -72 -41
-72 -10 0 -12 -11 -8 -42 4 -26 11 -43 19 -43 7 0 23 -9 35 -21 12 -12 30 -20
39 -18 14 2 15 -2 7 -24 -6 -15 -16 -34 -23 -42 -8 -8 -21 -30 -31 -49 -17
-33 -17 -34 9 -59 l25 -25 17 30 c17 30 19 30 51 17 29 -12 33 -12 33 0 0 9
-9 24 -20 34 -23 21 -19 48 11 72 16 12 18 24 13 66 -5 41 -12 54 -33 67 -15
9 -38 13 -54 10 -22 -4 -27 -2 -27 14 0 16 5 19 25 15 23 -4 25 -1 25 32 0 43
12 45 47 10 21 -21 24 -32 20 -60 l-6 -34 47 2 c51 3 55 10 34 74 -9 29 4 93
22 112 22 21 48 -87 27 -112 -9 -10 -8 -16 3 -26 11 -8 12 -16 5 -28 -7 -12
-4 -39 9 -91 20 -83 40 -105 70 -78 24 22 32 22 32 0 -1 -24 -24 -53 -42 -53
-23 0 -38 -22 -38 -57 0 -18 -1 -33 -2 -33 -2 0 -30 -5 -63 -10 -54 -9 -61 -8
-81 11 -23 22 -44 19 -44 -6 0 -21 -17 -27 -40 -15 -16 9 -25 8 -35 0 -8 -7
-19 -9 -25 -5 -5 3 -10 -1 -10 -9 0 -9 7 -16 16 -16 8 0 12 -5 9 -10 -4 -6
-11 -8 -16 -5 -5 4 -9 -8 -9 -25 0 -51 45 -50 62 2 4 12 38 -1 38 -16 0 -6 20
-23 44 -37 42 -26 43 -26 38 -5 -2 11 -12 29 -20 39 -23 26 0 47 27 23 15 -13
21 -14 27 -5 4 7 2 15 -4 17 -17 5 -15 32 3 32 8 0 22 -11 31 -24 18 -29 36
-25 55 10 8 16 20 24 33 22 28 -4 25 -52 -4 -76 l-22 -17 21 -19 c21 -19 21
-19 21 5 0 31 15 53 29 45 16 -10 14 -56 -3 -56 -16 0 -25 -19 -19 -37 7 -20
23 -15 33 10 6 12 14 29 19 37 5 8 17 33 27 55 24 52 63 95 85 95 15 0 17 -4
8 -29 -6 -16 -19 -37 -30 -47 -10 -9 -19 -22 -19 -28 0 -6 -18 -38 -40 -71
-22 -33 -40 -65 -40 -72 0 -7 -11 -20 -25 -29 -16 -10 -30 -35 -40 -72 -9 -32
-33 -83 -52 -115 -28 -47 -40 -58 -55 -54 -16 5 -19 2 -15 -14 9 -33 -12 -77
-39 -83 -19 -5 -24 -13 -24 -38 0 -17 -13 -53 -30 -80 -16 -26 -30 -52 -30
-57 0 -17 -42 -61 -56 -59 -8 2 -24 -12 -35 -30 -15 -23 -17 -32 -8 -30 20 4
12 -19 -29 -86 -32 -54 -36 -57 -44 -37 -10 28 -42 24 -46 -6 -2 -14 4 -26 17
-33 28 -14 30 -71 3 -63 -24 6 -44 -19 -40 -49 2 -19 8 -23 36 -20 21 1 32 -2
32 -11 0 -7 6 -22 14 -33 12 -16 17 -17 28 -6 11 11 8 18 -15 37 -21 19 -26
30 -21 49 8 32 41 42 144 41 l85 0 -3 -41 c-4 -44 14 -69 42 -58 22 9 20 40
-4 64 l-21 21 43 -1 c24 0 72 2 108 4 75 4 89 0 63 -20 -21 -16 -63 -19 -63
-4 0 6 -15 10 -32 10 -29 0 -35 -5 -49 -38 -14 -33 -14 -41 -2 -59 18 -26 8
-46 -17 -38 -14 4 -24 -2 -36 -22 -26 -42 -66 -83 -80 -83 -7 0 -17 8 -23 18
-7 13 -13 14 -22 5 -12 -12 -3 -37 11 -28 9 6 30 -25 30 -44 0 -15 -53 -14
-68 1 -8 8 -15 8 -27 -2 -21 -18 -16 -56 8 -52 9 2 17 0 17 -3 0 -13 -33 -55
-43 -55 -6 0 -21 -10 -34 -22 -33 -31 -40 -15 -15 40 41 93 36 137 -18 144
-31 4 -40 -27 -14 -47 16 -11 16 -17 6 -39 -6 -14 -16 -26 -22 -26 -5 0 -10
-11 -10 -25 0 -14 -11 -37 -24 -50 -26 -26 -24 -35 9 -35 46 0 51 -25 18 -98
-8 -18 -12 -41 -8 -50 5 -13 13 -6 36 32 27 43 33 48 61 44 39 -6 50 18 18 42
-13 10 -20 22 -16 29 9 14 46 15 46 1 0 -5 14 -10 30 -10 23 0 33 6 42 25 6
14 17 25 25 25 15 0 18 -26 3 -35 -6 -4 -17 -21 -24 -40 -8 -18 -24 -36 -35
-40 -12 -3 -26 -15 -31 -26 -6 -11 -21 -19 -35 -19 -15 0 -31 -10 -41 -25 -16
-24 -15 -26 7 -50 49 -51 57 -64 61 -101 2 -30 -1 -39 -17 -44 -12 -5 -29 -2
-41 6 -18 10 -25 11 -39 0 -14 -10 -15 -16 -6 -34 19 -35 56 -55 80 -43 30 16
41 13 41 -10 0 -12 8 -27 17 -34 14 -10 5 -14 -53 -20 -72 -9 -362 -15 -641
-15 -89 0 -213 -6 -275 -14 -63 -9 -131 -13 -151 -9 -20 3 -47 3 -61 -1 -23
-6 -24 -8 -14 -39 15 -46 17 -156 3 -167 -8 -7 -21 5 -43 39 -46 71 -47 77
-16 94 17 9 23 17 15 21 -6 4 -11 16 -11 26 0 32 -52 40 -210 33 -80 -3 -175
-5 -213 -4 -62 2 -84 -8 -57 -24 8 -5 8 -11 0 -20 -7 -9 -7 -21 0 -39 8 -22 6
-29 -10 -43 -20 -17 -27 -42 -12 -44 4 -1 17 -3 30 -4 13 -1 28 -7 35 -14 21
-21 36 -11 56 34 31 71 121 112 129 59 2 -14 -6 -27 -22 -38 -35 -22 -35 -63
-1 -76 32 -12 33 -45 3 -61 -13 -7 -28 -19 -34 -27 -6 -8 -16 -12 -22 -8 -19
11 -14 40 8 54 11 7 20 19 20 28 0 14 -7 15 -37 11 -20 -4 -41 -13 -45 -22
-12 -20 -28 -19 -44 2 -10 14 -15 15 -25 6 -10 -10 -10 -16 2 -30 8 -10 26
-45 39 -78 13 -33 30 -70 38 -83 l15 -23 13 30 c8 18 28 38 53 50 47 25 59 25
86 5 19 -14 19 -15 0 -52 -11 -20 -28 -48 -38 -61 -16 -22 -16 -26 -2 -33 20
-12 20 -48 -1 -48 -9 0 -18 9 -21 20 -3 11 -9 20 -14 20 -14 0 -21 -20 -11
-33 5 -7 13 -23 17 -37 16 -54 61 -79 67 -37 2 12 10 22 18 22 22 0 25 -53 4
-76 -15 -16 -16 -23 -6 -37 7 -9 15 -24 18 -32 15 -43 110 -223 123 -233 9 -8
46 -11 110 -8 75 2 101 7 120 22 29 23 76 26 68 4 -4 -8 -2 -17 2 -20 5 -3
157 -5 337 -5 181 0 338 -1 349 -1 35 -2 1611 1 1806 4 l185 3 39 32 c22 17
45 32 52 32 19 0 34 -35 21 -48 -9 -9 -4 -12 20 -12 22 0 32 5 32 15 0 19 14
19 30 0 7 -8 16 -15 21 -15 13 0 49 76 49 103 0 28 17 47 36 40 18 -7 18 -47
-1 -63 -20 -17 2 -51 30 -45 61 13 80 22 80 41 0 26 -31 30 -38 4 -3 -11 -12
-20 -21 -20 -23 0 -20 31 4 37 11 3 20 14 20 24 0 28 27 35 64 17 55 -28 66
-29 66 -7 0 11 7 22 15 25 9 4 15 19 15 39 0 19 -7 40 -15 49 -22 21 -18 34 9
32 13 0 24 -3 23 -6 -1 -3 4 -15 11 -28 7 -12 10 -31 7 -42 -3 -10 -1 -21 5
-25 7 -4 9 -18 6 -31 -5 -19 -2 -24 14 -24 19 0 24 10 21 39 -2 7 2 10 8 6 14
-8 14 1 0 26 -7 15 -7 24 2 35 17 20 40 -1 37 -33 -3 -30 30 -58 79 -68 28 -6
34 -3 48 26 9 17 14 40 12 51 -4 14 0 22 14 25 10 3 19 9 19 14 0 12 -48 0
-77 -18 -15 -10 -23 -11 -28 -3 -12 20 16 60 42 60 19 0 23 5 23 33 0 17 3 42
6 55 5 17 2 22 -14 22 -13 0 -22 9 -26 24 -3 13 -17 31 -31 40 -14 9 -25 26
-25 37 0 15 -4 19 -16 15 -11 -4 -15 -2 -11 8 3 8 1 28 -6 45 -10 29 -9 33 16
57 15 14 32 22 37 19 6 -3 10 0 10 8 0 8 8 21 18 30 18 17 97 47 123 47 25 0
31 -27 14 -67 -20 -48 -20 -50 15 -68 23 -12 30 -22 30 -45 0 -16 5 -32 10
-35 21 -13 -3 -25 -36 -19 -41 7 -42 1 -9 -38 14 -16 25 -36 25 -44 0 -8 -11
-20 -25 -26 -31 -14 -33 -33 -2 -23 12 4 34 9 48 12 26 5 26 3 25 -40 -1 -25
-8 -53 -16 -61 -11 -14 -10 -20 5 -36 35 -39 78 -13 54 33 -10 18 -7 25 20 49
17 15 35 28 40 28 4 0 25 -13 46 -30 48 -38 55 -38 55 3 0 27 -6 36 -34 51
-31 16 -35 23 -34 57 0 44 4 46 30 22 17 -15 21 -15 29 -3 5 8 7 29 4 46 -4
22 0 35 12 46 24 21 63 32 63 19 0 -6 11 -11 24 -11 12 0 35 -11 50 -25 27
-25 34 -45 14 -45 -6 0 -4 -8 6 -19 21 -24 66 -34 66 -15 0 7 9 18 20 24 25
13 45 60 53 125 3 28 8 60 11 72 3 12 -1 36 -7 53 -11 28 -10 33 7 46 24 17
66 18 67 2 1 -7 2 -29 3 -48 1 -30 5 -35 28 -38 38 -4 52 -25 38 -52 -7 -12
-10 -33 -7 -47 2 -14 0 -38 -7 -55 -9 -25 -8 -31 7 -39 9 -6 17 -21 17 -34 0
-13 3 -31 6 -40 6 -14 10 -13 30 12 l23 28 42 -23 c70 -37 65 -16 -11 42 -24
18 -60 74 -60 93 0 28 15 44 34 37 13 -5 16 -16 14 -43 -3 -30 0 -36 17 -36
16 0 19 6 17 28 -3 23 0 27 22 27 25 0 66 40 66 65 0 6 -9 20 -20 30 -29 26
-14 37 27 20 48 -20 73 -19 73 4 0 33 66 92 110 98 38 5 40 8 40 39 0 33 12
45 25 24 10 -17 55 -11 61 8 3 9 9 24 14 33 12 22 3 29 -34 29 -17 1 -42 7
-55 14 l-24 13 23 13 c19 10 68 11 207 7 170 -6 183 -5 192 12 8 14 2 29 -24
67 -19 27 -43 68 -55 90 -12 23 -32 52 -46 64 -38 37 -33 81 16 131 22 23 40
48 40 55 0 17 26 18 37 2 4 -7 8 -29 8 -48 0 -30 5 -38 34 -52 19 -9 39 -22
44 -27 20 -20 25 -11 14 19 -6 17 -17 30 -24 30 -7 0 -13 9 -13 19 0 11 -2 26
-6 34 -8 22 87 80 119 72 30 -8 47 17 38 54 -6 22 -7 22 -20 7 -10 -12 -23
-15 -41 -11 -22 5 -32 0 -53 -24 -18 -21 -31 -28 -46 -24 -30 8 -26 21 15 59
34 33 43 35 126 39 15 1 35 12 47 26 27 33 55 16 59 -36 5 -61 -5 -83 -48
-105 -22 -11 -40 -24 -40 -29 0 -5 -13 -14 -29 -21 -31 -12 -41 -34 -41 -87 0
-41 22 -44 73 -10 45 29 70 72 57 97 -17 32 -11 48 20 55 39 9 50 29 37 71 -9
30 -7 37 11 57 28 30 28 39 -4 70 -16 16 -24 33 -20 42 3 9 -3 23 -14 32 -11
10 -20 25 -20 35 0 23 -16 31 -47 24 -21 -6 -24 -11 -18 -34 4 -15 14 -35 22
-45 22 -24 10 -32 -26 -17 -17 7 -38 10 -47 6 -8 -3 -25 -1 -36 5 -21 11 -21
12 5 25 31 17 49 46 41 67 -8 22 24 77 44 77 9 -1 28 -7 41 -14 36 -20 53 -10
46 28 -5 27 -2 33 21 43 17 8 48 10 87 6 51 -5 62 -3 73 12 12 16 46 33 107
52 9 3 17 0 17 -7 0 -16 73 -140 100 -167 25 -28 37 -29 45 -5 10 31 75 65
113 58 30 -4 34 -2 43 23 9 24 17 29 53 33 55 7 132 75 121 108 -5 15 0 23 19
32 32 14 33 25 2 53 -13 12 -25 28 -28 36 -4 11 -11 9 -31 -10 -23 -21 -27
-22 -33 -7 -10 27 -47 18 -69 -17 -27 -43 -61 -48 -67 -10 -6 45 1 63 26 63
30 0 34 5 28 36 -3 18 -16 31 -40 41 -25 10 -32 17 -24 25 8 8 28 4 72 -15 73
-32 73 -32 58 -8 -7 11 -22 22 -35 26 -32 8 -29 35 7 72 l30 31 -30 4 c-22 3
-35 -2 -52 -19 -13 -13 -33 -23 -50 -23 -17 0 -28 -5 -28 -13 0 -19 -29 -42
-65 -54 -24 -8 -32 -18 -40 -50 -5 -23 -12 -42 -15 -43 -3 -2 -24 7 -47 19
-48 24 -64 26 -81 9 -6 -6 -22 -13 -34 -15 -25 -4 -38 -19 -38 -45 0 -10 -10
-20 -25 -24 -36 -9 -32 -39 8 -55 17 -8 38 -12 45 -11 14 3 16 -24 2 -33 -5
-3 -10 -2 -10 4 0 5 -9 8 -20 6 -29 -6 -40 -14 -40 -31 0 -17 -49 -39 -61 -27
-4 4 -9 19 -11 33 -5 39 -50 40 -64 2 -9 -24 -17 -29 -46 -30 l-35 -1 1 53 0
53 58 -1 c57 -2 59 -1 66 29 6 23 15 31 35 33 29 4 35 20 15 40 -9 9 -6 12 14
12 14 0 31 7 38 15 15 18 36 19 44 3 3 -9 12 -4 28 13 18 22 26 25 40 16 22
-15 46 6 70 61 15 34 17 46 8 57 -7 8 -16 12 -21 9 -12 -7 -11 6 2 45 6 17 20
36 30 41 35 19 39 43 14 73 -21 24 -27 26 -50 15 -31 -14 -39 -7 -31 27 6 23
11 26 35 20 36 -8 46 5 61 80 15 75 3 118 -33 113 -23 -3 -23 -5 -12 -78 7
-45 -16 -80 -40 -60 -8 7 -15 21 -15 31 0 14 -7 19 -30 19 -36 0 -38 16 -10
62 24 40 25 48 5 48 -8 0 -15 -4 -15 -10 0 -16 -27 -12 -98 16 -80 32 -98 46
-87 71 4 10 7 30 6 44 -1 14 5 31 13 39 23 18 21 60 -3 60 -13 0 -25 -14 -38
-45 -14 -34 -25 -46 -46 -51 -33 -7 -50 6 -45 32 2 12 13 20 31 22 18 2 27 9
27 21 0 9 5 22 12 29 18 18 2 26 -44 23 -43 -2 -42 -4 -21 47 4 10 -15 17 -39
13 -14 -2 -9 10 16 40 18 21 26 25 29 14 5 -11 11 -11 31 -2 29 13 34 27 11
27 -8 0 -24 9 -35 20 -24 24 -30 25 -30 6 0 -8 -12 -21 -27 -28 -16 -7 -29
-23 -31 -35 -5 -36 -29 -35 -51 3 -22 36 -45 44 -55 18 -9 -23 -8 -24 14 -24
23 0 26 -10 8 -28 -17 -17 -25 -15 -31 8 -3 11 -11 19 -18 18 -14 -3 -31 63
-31 125 0 45 -13 55 -39 31 -14 -13 -22 -15 -27 -7 -5 7 -13 9 -21 3 -12 -7
-12 -13 2 -42 22 -48 26 -108 6 -108 -5 0 -9 8 -8 18 3 32 -1 42 -16 42 -17 0
-65 67 -65 91 0 9 12 29 26 44 20 22 23 30 12 36 -7 5 -21 3 -33 -5 -16 -10
-27 -11 -55 -1 -31 11 -35 16 -35 48 0 22 -8 44 -22 59 -32 35 -56 98 -42 114
14 17 3 35 -19 32 -11 -2 -18 5 -20 18 -2 12 -12 30 -23 40 -10 9 -19 23 -19
29 0 12 -29 54 -83 120 -13 17 -34 52 -46 78 -28 61 -78 144 -106 177 -12 14
-30 45 -40 70 -11 25 -27 56 -37 69 -22 29 -24 81 -3 81 18 0 20 16 3 26 -6 4
-17 -1 -24 -10 -11 -16 -14 -14 -37 16 -14 18 -39 61 -56 95 -17 34 -35 65
-41 68 -5 3 -10 15 -10 26 0 10 -4 19 -10 19 -5 0 -17 17 -25 37 -9 21 -24 47
-35 58 -10 11 -25 36 -34 55 -21 48 -76 146 -109 197 -15 24 -41 69 -58 100
-17 32 -37 65 -43 73 -7 8 -16 23 -19 32 -14 39 -59 98 -75 98 -10 0 -23 -16
-34 -41 -21 -49 -39 -47 -54 7 -7 24 -18 40 -29 43 -16 3 -17 -2 -11 -38 6
-37 3 -44 -25 -71 -34 -32 -45 -36 -51 -20 -5 16 -51 21 -75 9 -19 -10 -25 -8
-46 17 -31 35 -45 27 -17 -9 27 -35 26 -49 -5 -41 -14 3 -38 1 -53 -5 -37 -16
-79 0 -92 34 -6 15 -17 25 -30 25 -17 0 -18 -3 -10 -25 9 -22 7 -25 -15 -25
-26 0 -35 -26 -15 -46 16 -16 -5 -61 -32 -69 -13 -4 -40 -20 -60 -36 -20 -16
-42 -29 -47 -29 -14 0 -14 119 -2 139 8 12 12 10 22 -12 8 -18 20 -27 36 -27
21 0 24 4 21 27 -2 22 -9 28 -30 30 -34 2 -98 62 -98 91 0 13 5 19 13 16 20
-7 51 21 44 40 -7 17 -47 37 -59 29 -5 -2 -8 -13 -8 -24 0 -20 -15 -26 -25 -9
-9 15 -45 12 -45 -4 0 -13 36 -54 74 -84 25 -20 21 -52 -7 -52 -16 0 -31 -13
-51 -45 -16 -25 -36 -45 -45 -45 -24 0 -43 37 -36 71 5 23 0 37 -24 68 -33 41
-33 66 0 76 25 8 24 27 -1 50 -23 21 -27 70 -5 79 20 7 19 60 -2 77 -9 8 -18
13 -20 12 -11 -9 -13 -1 -3 12 17 20 30 19 30 -2 0 -14 3 -14 12 -5 10 10 10
15 -1 21 -10 7 -12 21 -7 54 5 29 3 52 -5 64 -9 15 -6 30 18 78 51 106 94 184
139 252 24 37 44 71 44 75 0 4 17 36 38 70 21 35 60 104 87 153 28 50 54 98
60 107 5 9 25 45 44 80 19 35 60 106 91 158 58 95 114 195 185 325 21 39 50
88 65 110 55 82 151 256 145 265 -6 9 -1059 10 -1124 0z m189 -1720 c0 -11 -7
-20 -15 -20 -18 0 -19 12 -3 28 16 16 18 15 18 -8z m860 -393 c0 -18 -36 -51
-44 -39 -6 10 21 52 35 52 5 0 9 -6 9 -13z m-240 -76 c0 -5 10 -13 22 -17 19
-6 17 -8 -18 -20 -42 -15 -84 -18 -84 -7 0 4 10 17 22 30 21 23 58 32 58 14z
m160 -70 c-11 -23 -25 -41 -30 -41 -19 0 -10 42 18 76 34 43 42 22 12 -35z
m-263 16 c-4 -10 -14 -13 -33 -9 -20 4 -31 -1 -45 -19 -10 -13 -19 -19 -19
-13 0 5 16 27 35 49 33 35 37 37 52 22 9 -8 13 -22 10 -30z m-337 -37 c0 -11
-4 -20 -10 -20 -5 0 -10 2 -10 4 0 2 -3 11 -6 20 -4 11 -1 16 10 16 9 0 16 -8
16 -20z m340 -45 c-22 -24 -50 -34 -50 -18 0 4 12 19 28 33 34 33 55 20 22
-15z m-2006 9 c13 -33 7 -52 -14 -47 -12 3 -20 14 -20 27 0 36 23 49 34 20z
m1590 -3 c9 -14 -23 -81 -39 -81 -24 0 -28 19 -10 56 15 33 38 44 49 25z m221
-15 c16 -16 37 -25 57 -26 18 0 41 -1 51 -1 14 0 15 -4 7 -19 -5 -10 -10 -28
-10 -39 0 -35 -22 -71 -43 -71 -11 0 -28 -7 -38 -16 -38 -34 -169 -60 -169
-33 0 23 21 47 50 57 24 9 30 17 30 39 0 15 9 41 19 57 17 25 17 31 5 43 -15
15 -11 33 7 33 5 0 21 -11 34 -24z m-108 -28 c-3 -7 -5 -2 -5 12 0 14 2 19 5
13 2 -7 2 -19 0 -25z m-517 -8 c0 -5 -5 -10 -11 -10 -5 0 -7 5 -4 10 3 6 8 10
11 10 2 0 4 -4 4 -10z m920 0 c0 -5 -4 -10 -10 -10 -5 0 -10 5 -10 10 0 6 5
10 10 10 6 0 10 -4 10 -10z m-1972 -26 c-3 -19 -34 -41 -43 -32 -4 3 -2 16 5
27 13 25 43 28 38 5z m-77 -34 c5 0 9 -6 9 -14 0 -15 -35 -27 -56 -19 -31 12
-7 47 24 37 8 -2 18 -4 23 -4z m1969 -15 c0 -8 -7 -15 -15 -15 -8 0 -15 7 -15
15 0 8 7 15 15 15 8 0 15 -7 15 -15z m-2036 -70 c-6 -16 -24 -21 -24 -7 0 11
11 22 21 22 5 0 6 -7 3 -15z m42 -339 c7 -18 -8 -75 -21 -79 -10 -2 -17 58
-10 81 6 16 24 15 31 -2z m-38 -108 c-6 -18 -28 -21 -28 -4 0 9 7 16 16 16 9
0 14 -5 12 -12z m-378 -42 c0 -16 -18 -31 -27 -22 -8 8 5 36 17 36 5 0 10 -6
10 -14z m162 -55 c16 -43 18 -55 7 -62 -21 -13 -46 8 -64 55 -19 49 -14 69 17
64 14 -2 26 -19 40 -57z m2108 -18 c31 -58 156 -269 180 -303 20 -29 46 -73
103 -180 22 -41 58 -102 80 -135 23 -33 61 -98 86 -145 24 -47 49 -92 56 -100
7 -8 25 -40 40 -70 15 -29 35 -65 45 -80 22 -31 126 -206 162 -272 15 -28 33
-57 41 -66 19 -23 77 -122 127 -217 65 -123 103 -191 121 -211 9 -11 29 -46
45 -79 29 -62 33 -69 102 -172 35 -51 52 -91 40 -93 -2 -1 -502 -3 -1113 -6
-610 -2 -1176 -6 -1257 -7 -132 -3 -148 -1 -148 13 0 15 157 292 360 635 43
72 89 153 104 180 14 28 39 71 54 96 15 26 63 111 106 190 43 79 114 203 156
274 160 269 219 372 250 435 18 36 38 72 45 80 7 8 26 40 42 70 61 117 125
218 137 214 6 -2 22 -26 36 -51z m-2220 -13 c0 -5 -4 -10 -10 -10 -5 0 -10 5
-10 10 0 6 5 10 10 10 6 0 10 -4 10 -10z m158 -212 c16 -16 15 -43 -1 -57 -11
-8 -18 -6 -31 8 -31 34 0 81 32 49z m127 -34 c0 -27 -41 -31 -50 -5 -3 12 -4
25 0 30 9 16 50 -4 50 -25z m-315 -73 c0 -24 -18 -37 -32 -23 -8 8 -7 16 2 27
17 21 30 19 30 -4z m197 -41 c15 -51 10 -76 -17 -83 -26 -7 -30 0 -18 35 8 21
7 37 -1 55 -6 13 -9 29 -5 34 12 19 29 2 41 -41z m-264 -13 c8 -20 -9 -41 -27
-34 -23 9 -21 47 3 47 10 0 21 -6 24 -13z m177 -23 c0 -27 -24 -33 -34 -8 -7
19 12 47 25 38 5 -3 9 -16 9 -30z m330 -58 c0 -24 -3 -52 -6 -61 -11 -28 -24
4 -24 58 0 35 4 47 15 47 11 0 15 -12 15 -44z m30 -180 c0 -14 -4 -28 -10 -31
-6 -3 -7 -30 -3 -66 5 -49 3 -63 -12 -79 -29 -32 -38 -24 -31 23 5 34 3 47
-10 57 -14 13 -16 11 -12 -15 3 -28 1 -30 -43 -39 -58 -11 -79 -4 -79 28 0 31
14 40 39 26 20 -10 71 4 71 20 0 10 -32 36 -53 43 -10 4 -15 11 -12 17 4 6 17
4 36 -6 37 -19 55 -13 71 21 15 33 48 34 48 1z m3098 -168 c2 -13 -3 -18 -17
-18 -12 0 -21 2 -21 4 0 2 -3 12 -6 21 -5 13 -2 16 17 13 13 -1 25 -11 27 -20z
m-3270 -19 c37 -13 44 -28 47 -97 2 -49 1 -53 -19 -50 -17 2 -20 9 -18 31 2
18 -5 37 -22 58 -14 17 -26 39 -26 50 0 22 -2 22 38 8z m3258 -56 c4 -23 -14
-53 -31 -53 -22 0 -19 57 2 69 20 11 26 8 29 -16z m-3115 -56 c-8 -8 -11 -7
-11 4 0 20 13 34 18 19 3 -7 -1 -17 -7 -23z m3621 -110 c4 -20 1 -23 -14 -19
-17 4 -25 32 -12 45 11 10 21 -1 26 -26z m123 -2 c0 -13 -8 -21 -22 -23 -19
-3 -23 1 -23 23 0 22 4 26 23 23 14 -2 22 -10 22 -23z m-3895 -5 c0 -5 -5 -10
-11 -10 -5 0 -7 5 -4 10 3 6 8 10 11 10 2 0 4 -4 4 -10z m3200 -120 c0 -5 -2
-10 -4 -10 -3 0 -8 5 -11 10 -3 6 -1 10 4 10 6 0 11 -4 11 -10z m180 -11 c0
-5 -4 -9 -10 -9 -5 0 -10 7 -10 16 0 8 5 12 10 9 6 -3 10 -10 10 -16z m269
-77 c15 -34 46 -43 69 -20 22 22 24 -1 3 -28 -24 -31 -13 -47 26 -37 19 4 23
1 23 -20 0 -53 -60 -61 -68 -8 -2 12 -10 25 -18 28 -19 7 -74 87 -74 108 0 26
24 12 39 -23z m443 21 c24 -22 23 -28 -7 -31 -28 -2 -38 9 -29 32 8 20 13 20
36 -1z m-774 -20 c-5 -25 -28 -28 -28 -4 0 12 6 21 16 21 9 0 14 -7 12 -17z
m482 -57 c0 -3 -4 -8 -10 -11 -5 -3 -10 -1 -10 4 0 6 5 11 10 11 6 0 10 -2 10
-4z m-670 -93 c0 -7 -9 -13 -20 -13 -22 0 -26 20 -8 38 13 13 28 -1 28 -25z
m1074 -22 c22 -24 13 -41 -19 -41 -28 0 -45 37 -24 51 20 12 24 11 43 -10z
m-1146 -14 c2 -12 -3 -17 -17 -17 -15 0 -21 6 -21 21 0 25 33 22 38 -4z m447
-7 c3 -5 1 -10 -4 -10 -6 0 -11 5 -11 10 0 6 2 10 4 10 3 0 8 -4 11 -10z m145
-4 c0 -3 -4 -8 -10 -11 -5 -3 -10 -1 -10 4 0 6 5 11 10 11 6 0 10 -2 10 -4z
m-348 -51 c9 -36 8 -38 -20 -16 -16 11 -21 22 -16 34 9 25 26 16 36 -18z
m-156 0 c8 -20 -13 -45 -37 -45 -22 0 -22 0 -9 34 10 29 37 35 46 11z m237 -2
c10 -10 -13 -33 -33 -33 -10 0 -21 -7 -24 -16 -3 -8 -11 -12 -16 -9 -13 8 6
35 25 35 7 0 15 7 19 15 6 16 18 19 29 8z m597 -48 c19 -20 21 -27 10 -40 -19
-23 -39 -18 -51 12 -10 27 -6 53 9 53 5 0 19 -11 32 -25z m-95 -30 c0 -22 -22
-30 -44 -16 -21 14 -5 43 21 39 15 -2 23 -10 23 -23z m-205 -4 c0 -5 -7 -11
-15 -15 -9 -3 -15 0 -15 9 0 8 7 15 15 15 8 0 15 -4 15 -9z m-310 -40 c0 -16
-29 -33 -51 -29 -36 5 -34 26 3 31 18 2 36 5 41 5 4 1 7 -2 7 -7z m-162 -44
c3 -15 -43 -47 -68 -47 -19 0 -10 29 17 50 29 23 46 22 51 -3z m1150 -117 c1
-9 -4 -24 -11 -34 -11 -15 -17 -17 -35 -7 -25 13 -28 31 -10 49 17 17 52 11
56 -8z m-1020 -27 c-2 -10 -7 -18 -12 -18 -5 0 -10 8 -12 18 -1 9 4 17 13 17
8 0 13 -7 11 -17z m572 -38 c0 -19 -35 -37 -63 -33 -30 4 -29 39 2 55 28 13
61 2 61 -22z m663 -154 c-8 -38 -21 -48 -39 -30 -14 14 -13 19 3 53 16 34 19
36 30 20 7 -10 10 -28 6 -43z m-1035 22 c4 -29 -45 -64 -59 -42 -11 17 -12 53
-2 63 4 4 19 6 33 4 17 -2 26 -10 28 -25z m496 -16 c-3 -9 -10 -17 -15 -17
-11 0 -12 34 -2 44 11 11 24 -9 17 -27z m-326 -39 c7 -7 12 -16 12 -20 0 -9
-59 -48 -72 -48 -18 0 -6 50 14 64 27 19 31 19 46 4z m846 -45 c4 -10 0 -13
-12 -11 -10 2 -33 -9 -51 -25 -39 -32 -57 -34 -66 -7 -7 22 3 63 13 56 4 -2
23 -1 42 3 43 9 67 4 74 -16z m-1045 -38 c10 -3 26 -14 36 -25 17 -19 17 -20
0 -20 -29 0 -75 50 -74 79 l1 26 9 -27 c6 -15 18 -30 28 -33z m360 21 c13 -7
32 -11 43 -8 10 2 18 -1 18 -8 0 -7 -7 -10 -15 -6 -10 3 -20 -5 -30 -24 -14
-27 -14 -30 6 -44 25 -17 18 -36 -11 -29 -16 4 -20 0 -20 -17 0 -26 -23 -22
-28 5 -3 10 0 15 7 11 6 -4 11 -3 11 3 0 6 -13 17 -30 26 -36 18 -38 36 -8 75
25 34 25 34 57 16z m-3815 -42 c49 -4 53 -8 27 -31 -12 -9 -21 -25 -21 -35 0
-23 -16 -32 -24 -13 -7 19 -36 20 -36 1 0 -8 7 -16 15 -20 21 -8 20 -56 -2
-56 -29 0 -61 38 -55 66 2 13 8 27 13 30 5 3 9 21 9 41 0 30 3 34 18 28 9 -5
34 -9 56 -11z m3574 -6 c-3 -7 -15 -13 -28 -13 -13 0 -25 6 -27 13 -3 8 6 12
27 12 21 0 30 -4 28 -12z m92 -16 c0 -4 -9 -13 -21 -20 -16 -10 -20 -22 -18
-50 2 -21 0 -42 -3 -47 -10 -19 -7 -79 6 -104 16 -31 40 -151 31 -159 -3 -3
-11 0 -17 6 -7 7 -20 12 -30 12 -16 0 -18 -5 -13 -34 7 -34 7 -34 -32 -34 -21
1 -49 -3 -62 -7 -22 -7 -23 -6 -17 18 7 30 -22 55 -42 35 -8 -8 -15 -8 -27 2
-20 17 -19 33 6 82 15 29 18 43 10 51 -6 6 -11 16 -11 22 0 16 56 46 74 39 18
-7 21 -30 6 -39 -5 -3 -10 -15 -10 -26 0 -24 29 -25 36 -1 3 9 9 24 13 32 5 9
3 20 -5 28 -21 19 -1 49 37 57 l31 7 -22 23 -21 22 31 47 c19 28 39 46 51 46
10 0 19 -3 19 -8z m-3430 -147 c0 -8 -4 -15 -9 -15 -13 0 -22 16 -14 24 11 11
23 6 23 -9z m-192 -18 c2 -10 -12 -33 -35 -55 -21 -20 -45 -50 -53 -66 -25
-49 -37 -43 -38 18 0 45 3 55 19 59 10 3 23 16 28 30 15 38 73 48 79 14z m10
-119 c4 -23 -33 -58 -62 -58 -38 0 -40 17 -7 51 33 32 64 35 69 7z m-290 -22
c2 -11 -7 -29 -21 -42 -14 -13 -27 -29 -29 -36 -4 -10 -8 -10 -22 1 -16 14
-16 16 8 28 19 10 26 22 26 44 0 24 4 30 17 27 10 -2 19 -12 21 -22z m4083
-16 c13 0 11 -37 -2 -45 -15 -10 -49 24 -42 42 3 8 12 12 20 9 8 -3 19 -6 24
-6z m-3881 -54 c0 -17 -14 -29 -23 -20 -8 8 3 34 14 34 5 0 9 -6 9 -14z m-180
-11 c0 -8 -4 -15 -9 -15 -5 0 -11 7 -15 15 -3 9 0 15 9 15 8 0 15 -7 15 -15z
m3909 -89 c21 -25 -54 -58 -129 -56 -19 0 -36 3 -39 6 -10 10 37 33 82 39 26
4 47 11 47 16 0 14 26 11 39 -5z m-3896 -58 c7 -19 -20 -46 -32 -32 -4 5 -18
22 -30 38 l-22 30 22 12 c20 10 25 9 39 -10 9 -11 19 -29 23 -38z m-153 -8 c0
-5 -4 -10 -10 -10 -5 0 -10 5 -10 10 0 6 5 10 10 10 6 0 10 -4 10 -10z m-12
-58 c20 -57 -26 -86 -49 -31 -11 28 -10 33 6 45 26 20 32 18 43 -14z m3940 1
c-5 -25 -28 -28 -28 -4 0 12 6 21 16 21 9 0 14 -7 12 -17z m-2820 -4 c-2 -6
-8 -10 -13 -10 -5 0 -11 4 -13 10 -2 6 4 11 13 11 9 0 15 -5 13 -11z m-888
-39 c-18 -11 -24 -6 -16 16 5 14 9 15 19 5 9 -9 9 -14 -3 -21z m-81 2 l30 -18
-29 -11 c-33 -13 -40 -9 -40 24 0 28 1 28 39 5z m729 -55 c4 -21 -15 -47 -34
-47 -7 0 -19 10 -25 22 -10 18 -8 24 7 35 24 17 48 13 52 -10z m-748 -90 c0
-27 -66 -87 -96 -87 -33 0 -30 21 6 42 17 10 38 34 46 54 12 29 17 34 29 24 8
-7 15 -21 15 -33z m160 -10 c0 -16 -12 -32 -41 -50 -22 -15 -47 -27 -54 -27
-22 0 -5 40 24 55 15 7 33 21 40 29 19 23 31 20 31 -7z m95 -86 c6 -12 -44
-61 -62 -61 -24 0 -13 28 20 49 38 24 34 23 42 12z m-235 -32 c0 -5 -11 -9
-25 -9 -26 0 -34 15 -12 23 16 5 37 -3 37 -14z m-116 -10 c-7 -11 -34 -12 -34
-1 0 14 11 21 26 15 8 -3 11 -9 8 -14z m3116 -53 c0 -19 -22 -35 -58 -42 -28
-6 -32 -4 -32 14 0 16 9 24 33 31 46 13 57 13 57 -3z m-750 -6 c0 -5 -4 -10
-10 -10 -5 0 -10 5 -10 10 0 6 5 10 10 10 6 0 10 -4 10 -10z m76 -17 c-10 -10
-19 5 -10 18 6 11 8 11 12 0 2 -7 1 -15 -2 -18z m-358 -12 c-5 -24 -38 -27
-38 -3 0 10 3 21 6 25 11 11 35 -5 32 -22z m1512 11 c0 -10 -5 -23 -12 -30
-17 -17 -58 -15 -58 2 0 8 -9 18 -20 21 -38 12 -20 25 35 25 46 0 55 -3 55
-18z m-5330 -7 c0 -8 -4 -15 -10 -15 -5 0 -10 7 -10 15 0 8 5 15 10 15 6 0 10
-7 10 -15z m4030 0 c0 -8 -4 -15 -10 -15 -5 0 -10 7 -10 15 0 8 5 15 10 15 6
0 10 -7 10 -15z m-25 -35 c9 -15 -14 -40 -37 -40 -14 0 -18 5 -14 16 3 9 6 20
6 25 0 12 37 11 45 -1z m95 0 c0 -5 -4 -10 -10 -10 -5 0 -10 5 -10 10 0 6 5
10 10 10 6 0 10 -4 10 -10z m1150 -11 c0 -4 -4 -11 -10 -14 -5 -3 -10 -1 -10
5 0 6 -4 8 -10 5 -5 -3 -10 0 -10 8 0 10 7 13 20 10 11 -3 20 -9 20 -14z
m-1492 -16 c-2 -12 -12 -18 -28 -18 -16 0 -26 6 -28 18 -3 13 3 17 28 17 25 0
31 -4 28 -17z m1440 -18 c1 -14 -3 -25 -8 -25 -6 0 -10 11 -10 25 0 14 4 25 8
25 4 0 9 -11 10 -25z m-1558 -16 c0 -20 -25 -37 -37 -25 -3 3 -1 17 5 32 13
28 32 24 32 -7z m-3342 9 c14 -14 16 -44 2 -53 -11 -7 -42 49 -33 59 9 9 18 7
31 -6z m3542 -23 c0 -8 -4 -15 -10 -15 -5 0 -10 7 -10 15 0 8 5 15 10 15 6 0
10 -7 10 -15z m835 -9 c9 -14 30 -29 46 -35 39 -13 41 -46 2 -36 -16 3 -36 14
-46 22 -21 19 -27 14 -44 -35 -17 -48 -16 -52 5 -52 9 0 23 -4 31 -9 11 -7 8
-12 -12 -26 -21 -13 -29 -14 -46 -4 -17 11 -23 10 -40 -5 -12 -11 -21 -16 -21
-13 0 3 -20 0 -45 -7 -43 -13 -45 -13 -61 11 -15 25 -15 26 9 47 13 11 27 29
30 39 8 23 30 22 52 -3 27 -30 45 -25 45 11 0 17 6 43 14 57 8 15 17 35 20 45
8 25 43 21 61 -7z m115 5 c0 -26 -16 -35 -24 -15 -10 25 -7 34 9 34 8 0 15 -9
15 -19z m-555 -21 c0 -13 -5 -25 -12 -27 -13 -5 -27 32 -18 47 11 18 30 5 30
-20z m-649 9 c12 -20 -21 -42 -55 -34 -34 7 -34 7 -25 29 7 19 69 22 80 5z
m1632 -18 c23 -14 10 -46 -21 -49 -15 -2 -27 -8 -27 -13 0 -5 -4 -9 -10 -9
-19 0 -10 48 13 63 26 19 28 19 45 8z m-737 -24 c-1 -12 -15 -9 -19 4 -3 6 1
10 8 8 6 -3 11 -8 11 -12z m619 -3 c0 -9 -5 -14 -12 -12 -18 6 -21 28 -4 28 9
0 16 -7 16 -16z m-760 -55 c0 -11 -6 -19 -14 -19 -15 0 -29 37 -20 52 9 13 34
-12 34 -33z m-4014 6 c7 -18 -12 -45 -32 -45 -17 0 -18 32 -2 48 16 16 27 15
34 -3z m2160 -20 c-3 -9 -11 -13 -16 -10 -8 5 -7 11 1 21 14 18 24 11 15 -11z
m1934 -26 c0 -4 -18 -18 -40 -30 -22 -12 -38 -25 -35 -27 6 -7 -27 -31 -42
-32 -22 0 -14 20 12 30 14 5 25 16 25 25 0 25 36 54 59 48 12 -3 21 -9 21 -14z
m-547 5 c10 -11 -5 -34 -22 -34 -41 0 -55 -54 -23 -83 18 -16 20 -15 45 10 74
77 84 76 66 -6 -11 -53 -30 -76 -63 -76 -20 0 -25 -10 -41 -87 -3 -16 -12 -28
-19 -28 -8 0 -17 12 -21 28 -3 15 -14 35 -23 45 -12 14 -14 22 -5 35 16 26 27
158 14 166 -20 12 -12 23 13 19 13 -3 32 0 43 6 21 12 28 13 36 5z m-3118 -84
c-5 -8 -11 -8 -17 -2 -6 6 -7 16 -3 22 5 8 11 8 17 2 6 -6 7 -16 3 -22z m3699
-27 c7 -17 -18 -52 -29 -41 -8 8 5 58 15 58 4 0 11 -8 14 -17z m-831 -7 c6
-15 -22 -46 -40 -46 -6 0 -16 -7 -23 -15 -7 -8 -21 -15 -31 -15 -28 0 -27 56
1 65 11 3 20 11 20 16 0 15 67 11 73 -5z m-815 -19 c2 -10 -3 -17 -12 -17 -18
0 -29 16 -21 31 9 14 29 6 33 -14z m-2171 -14 c8 -20 -31 -55 -52 -47 -13 5
-12 10 1 35 16 32 41 38 51 12z m2687 -23 c-17 -27 -17 -30 -1 -48 31 -34 19
-56 -14 -26 -13 12 -22 13 -38 5 -30 -17 -41 -13 -41 13 0 32 54 86 86 86 25
0 25 0 8 -30z m-1399 10 c3 -5 1 -10 -4 -10 -6 0 -11 5 -11 10 0 6 2 10 4 10
3 0 8 -4 11 -10z m1809 -51 c-8 -13 -24 -1 -24 18 0 13 3 13 15 3 8 -7 12 -16
9 -21z m276 -9 c0 -24 -26 -38 -42 -22 -8 8 -8 15 2 27 18 21 40 19 40 -5z
m-3470 -10 c0 -11 -2 -20 -4 -20 -2 0 -11 -3 -20 -6 -11 -4 -16 0 -16 13 0 23
8 33 27 33 7 0 13 -9 13 -20z m3189 -56 c13 -30 14 -34 2 -34 -16 0 -41 31
-41 50 0 26 24 16 39 -16z m-551 9 c-2 -10 -11 -19 -21 -21 -16 -3 -17 -1 -7
17 13 25 33 28 28 4z m-2752 -7 c9 -23 -15 -57 -51 -72 -46 -19 -55 -18 -55 6
0 11 4 20 10 20 5 0 22 14 37 30 29 32 50 38 59 16z m3204 -5 c26 -49 2 -122
-35 -107 -15 6 -21 78 -9 110 8 22 31 20 44 -3z m304 -72 c-6 -21 -16 -33 -31
-35 -33 -5 -39 29 -12 67 19 28 23 29 37 15 12 -11 13 -22 6 -47z m-822 29
c-9 -9 -15 -9 -24 0 -9 9 -7 12 12 12 19 0 21 -3 12 -12z m154 -39 c15 -31 22
-32 73 -18 7 2 15 -1 18 -7 2 -6 -5 -14 -16 -17 -11 -2 -21 -15 -23 -28 -2
-17 -10 -25 -29 -27 -22 -3 -34 7 -68 50 -39 48 -41 53 -25 65 29 21 52 15 70
-18z m224 -9 c0 -20 -15 -25 -44 -14 -13 5 -14 9 -5 20 18 21 49 17 49 -6z
m-2820 -65 c0 -8 -4 -15 -10 -15 -5 0 -10 7 -10 15 0 8 5 15 10 15 6 0 10 -7
10 -15z m2713 -57 c-28 -57 -66 -82 -114 -74 -23 4 -48 2 -60 -5 -29 -15 -45
2 -27 30 11 18 22 21 76 21 57 0 63 2 72 25 5 14 16 25 24 25 7 0 17 8 20 17
4 10 10 13 16 7 7 -7 4 -23 -7 -46z m-183 16 c0 -16 -16 -19 -25 -4 -8 13 4
32 16 25 5 -4 9 -13 9 -21z m-2780 -9 c0 -8 -4 -15 -9 -15 -13 0 -22 16 -14
24 11 11 23 6 23 -9z m51 -45 c10 -6 19 -15 19 -20 0 -9 -51 -40 -65 -40 -9 0
-6 30 5 51 12 22 15 23 41 9z m2294 -20 c3 -5 1 -10 -4 -10 -6 0 -11 5 -11 10
0 6 2 10 4 10 3 0 8 -4 11 -10z m-2355 -56 c0 -9 -7 -14 -17 -12 -25 5 -28 28
-4 28 12 0 21 -6 21 -16z m2018 -17 c2 -11 -3 -17 -17 -17 -23 0 -35 15 -26
31 10 15 39 6 43 -14z"/>
<path d="M5317 7003 c-12 -11 -8 -23 8 -23 8 0 15 7 15 15 0 16 -12 20 -23 8z"/>
<path d="M5390 6926 c0 -2 9 -25 20 -51 14 -34 25 -46 37 -43 32 6 27 44 -10
72 -32 24 -47 31 -47 22z"/>
<path d="M5541 6694 c0 -11 3 -14 6 -6 3 7 2 16 -1 19 -3 4 -6 -2 -5 -13z"/>
<path d="M5850 6691 c0 -17 12 -41 21 -41 5 0 9 11 9 25 0 16 -6 25 -15 25 -8
0 -15 -4 -15 -9z"/>
<path d="M5553 6585 c-7 -20 2 -29 21 -22 9 4 13 13 10 22 -8 19 -23 19 -31 0z"/>
<path d="M5623 6571 c-25 -21 -29 -36 -13 -46 18 -11 50 15 50 40 0 30 -7 31
-37 6z"/>
<path d="M6127 6274 c-15 -15 -7 -44 12 -44 11 0 23 -4 26 -10 3 -5 12 -10 18
-10 7 1 5 6 -4 13 -9 7 -18 21 -20 31 -4 21 -21 31 -32 20z"/>
<path d="M6242 6229 c2 -7 10 -15 17 -17 8 -3 12 1 9 9 -2 7 -10 15 -17 17 -8
3 -12 -1 -9 -9z"/>
<path d="M6170 6121 c0 -16 41 -61 51 -56 15 10 10 35 -6 35 -8 0 -15 7 -15
15 0 8 -7 15 -15 15 -8 0 -15 -4 -15 -9z"/>
<path d="M6311 5934 c0 -11 3 -14 6 -6 3 7 2 16 -1 19 -3 4 -6 -2 -5 -13z"/>
<path d="M6560 5456 c0 -10 9 -16 21 -16 24 0 21 23 -4 28 -10 2 -17 -3 -17
-12z"/>
<path d="M7345 5430 c-3 -6 1 -13 10 -16 19 -8 30 0 20 15 -8 14 -22 14 -30 1z"/>
<path d="M2824 5372 c-6 -4 -18 -21 -27 -38 -9 -17 -23 -36 -31 -43 -20 -16
-21 -51 -2 -51 7 0 16 14 20 30 7 37 36 41 36 5 0 -14 -8 -29 -20 -35 -11 -6
-20 -20 -20 -31 0 -11 -5 -29 -10 -40 -20 -37 1 -39 36 -4 19 19 34 40 34 45
0 5 11 12 25 16 47 12 50 30 12 67 -20 18 -37 46 -39 60 -2 17 -7 24 -14 19z"/>
<path d="M2866 5343 c10 -42 41 -56 62 -30 16 19 -13 57 -44 57 -22 0 -24 -3
-18 -27z"/>
<path d="M6820 5280 c0 -5 7 -10 15 -10 8 0 15 5 15 10 0 6 -7 10 -15 10 -8 0
-15 -4 -15 -10z"/>
<path d="M6725 5190 c-15 -16 -16 -23 -6 -33 10 -9 16 -7 32 12 10 13 19 27
19 32 0 16 -26 9 -45 -11z"/>
<path d="M2710 5190 c0 -5 5 -10 10 -10 6 0 10 5 10 10 0 6 -4 10 -10 10 -5 0
-10 -4 -10 -10z"/>
<path d="M7362 5123 c2 -12 11 -17 23 -15 25 5 29 8 20 21 -11 19 -47 13 -43
-6z"/>
<path d="M7410 5065 c-19 -36 -6 -42 29 -12 16 13 27 28 24 31 -14 14 -40 4
-53 -19z"/>
<path d="M6873 5024 c-7 -18 11 -39 26 -30 17 11 13 46 -4 46 -9 0 -18 -7 -22
-16z"/>
<path d="M7384 4985 c-12 -30 16 -45 46 -25 13 9 12 12 -4 25 -25 19 -35 19
-42 0z"/>
<path d="M2753 4959 c-10 -25 -9 -35 3 -54 19 -29 58 -31 43 -3 -6 11 -6 25 0
36 11 20 -3 52 -22 52 -7 0 -18 -14 -24 -31z"/>
<path d="M7275 4930 c3 -5 8 -10 11 -10 2 0 4 5 4 10 0 6 -5 10 -11 10 -5 0
-7 -4 -4 -10z"/>
<path d="M2694 4915 c-10 -8 -14 -15 -8 -15 6 0 17 7 24 15 16 19 9 19 -16 0z"/>
<path d="M6910 4915 c0 -8 7 -15 15 -15 8 0 15 7 15 15 0 8 -7 15 -15 15 -8 0
-15 -7 -15 -15z"/>
<path d="M7376 4911 c-9 -13 1 -31 26 -49 24 -18 23 -42 -3 -42 -13 0 -19 -5
-15 -12 3 -7 9 -21 12 -31 8 -22 28 -17 32 9 2 10 8 29 14 42 10 20 8 27 -24
58 -22 23 -38 32 -42 25z"/>
<path d="M7367 4693 c-12 -11 -8 -23 8 -23 8 0 15 7 15 15 0 16 -12 20 -23 8z"/>
<path d="M7474 4636 c-6 -16 12 -56 25 -56 20 0 32 29 21 49 -12 24 -38 28
-46 7z"/>
<path d="M7618 4590 c-32 -33 -34 -43 -13 -60 12 -10 20 -7 46 14 19 17 38 24
49 21 30 -10 32 12 4 34 -35 28 -53 26 -86 -9z"/>
<path d="M2662 4538 c2 -12 9 -23 15 -26 19 -6 29 28 12 39 -23 14 -31 10 -27
-13z"/>
<path d="M7710 4470 c0 -11 7 -20 15 -20 8 0 15 9 15 20 0 11 -7 20 -15 20 -8
0 -15 -9 -15 -20z"/>
<path d="M7687 4419 c-9 -6 -17 -17 -17 -25 0 -8 -14 -28 -31 -44 l-32 -28 22
-28 c11 -14 21 -33 21 -40 0 -7 9 -15 20 -19 11 -3 19 -11 17 -17 -1 -6 4 -13
11 -15 21 -8 13 38 -10 57 -20 16 -21 21 -10 40 7 12 10 29 7 39 -3 11 3 25
15 36 33 29 23 64 -13 44z"/>
<path d="M7573 4403 c-13 -5 -18 -35 -7 -46 11 -11 34 5 34 23 0 22 -10 29
-27 23z"/>
<path d="M7910 4291 c-12 -18 -24 -49 -26 -68 -1 -19 -12 -45 -23 -57 -12 -12
-21 -25 -21 -28 0 -3 23 -8 51 -12 45 -6 56 -4 90 19 23 15 39 33 39 44 0 22
-28 35 -54 25 -35 -13 -63 45 -35 73 6 6 9 17 7 24 -2 7 -14 -1 -28 -20z"/>
<path d="M2990 4274 c0 -33 33 -30 38 4 3 17 -2 22 -17 22 -16 0 -21 -6 -21
-26z"/>
<path d="M7550 4270 c0 -11 7 -20 15 -20 17 0 18 2 9 24 -9 23 -24 20 -24 -4z"/>
<path d="M3130 4239 c0 -5 5 -7 10 -4 6 3 10 8 10 11 0 2 -4 4 -10 4 -5 0 -10
-5 -10 -11z"/>
<path d="M3094 4215 c-4 -8 -3 -23 1 -32 7 -17 8 -16 15 2 5 11 9 26 9 33 1
17 -18 15 -25 -3z"/>
<path d="M3003 4169 c-6 -6 -8 -20 -6 -30 4 -15 13 -19 32 -17 14 1 32 -1 39
-5 13 -9 32 -1 32 12 0 5 -9 11 -20 14 -11 3 -20 12 -20 21 0 18 -40 22 -57 5z"/>
<path d="M2787 4153 c-4 -3 -7 -13 -7 -21 0 -12 3 -12 15 -2 8 7 15 16 15 21
0 11 -14 12 -23 2z"/>
<path d="M2976 4088 c-3 -7 -7 -30 -10 -51 -4 -32 -2 -38 10 -33 9 3 20 6 25
6 4 0 15 13 23 29 14 26 14 30 -3 45 -21 19 -40 21 -45 4z"/>
<path d="M2783 4074 c-3 -9 -5 -28 -4 -43 3 -51 3 -96 -1 -121 -3 -22 1 -25
30 -28 37 -4 53 19 34 49 -10 15 -8 21 10 33 18 13 19 18 8 31 -7 8 -20 15
-30 15 -29 0 -45 27 -32 55 8 16 8 25 1 25 -5 0 -12 -7 -16 -16z"/>
<path d="M3120 4049 c0 -5 5 -7 10 -4 6 3 10 8 10 11 0 2 -4 4 -10 4 -5 0 -10
-5 -10 -11z"/>
<path d="M7930 4046 c0 -5 8 -14 17 -21 14 -11 15 -17 6 -38 -9 -20 -9 -28 2
-37 17 -14 33 6 17 22 -7 7 -2 18 16 34 l27 23 -30 1 c-17 0 -36 5 -43 12 -7
7 -12 8 -12 4z"/>
<path d="M3020 3971 c-15 -30 -12 -33 15 -15 14 9 22 20 19 25 -9 15 -23 10
-34 -10z"/>
<path d="M8320 3974 c0 -8 5 -12 10 -9 6 3 10 10 10 16 0 5 -4 9 -10 9 -5 0
-10 -7 -10 -16z"/>
<path d="M2634 3958 c4 -13 9 -36 13 -51 5 -23 10 -28 32 -25 22 3 26 8 24 32
-3 34 -29 66 -56 66 -15 0 -18 -5 -13 -22z"/>
<path d="M2068 3918 c-2 -19 -10 -24 -41 -26 -33 -3 -38 -6 -35 -25 3 -20 8
-22 53 -19 27 2 51 4 52 5 1 1 3 20 5 42 2 30 -1 40 -14 43 -11 2 -18 -4 -20
-20z"/>
<path d="M8248 3929 c-10 -5 -18 -16 -18 -23 0 -7 -9 -21 -20 -31 -34 -31 -6
-39 35 -11 21 14 42 26 47 26 5 0 8 10 6 22 -3 26 -24 33 -50 17z"/>
<path d="M2890 3886 c0 -8 5 -18 10 -21 6 -3 10 1 10 9 0 8 -4 18 -10 21 -5 3
-10 -1 -10 -9z"/>
<path d="M8080 3861 c5 -11 10 -29 10 -41 0 -24 26 -38 42 -22 7 7 2 21 -18
46 -31 39 -51 48 -34 17z"/>
<path d="M7937 3863 c-15 -14 -5 -30 28 -46 46 -22 45 -22 45 12 0 21 -6 30
-22 35 -30 8 -43 7 -51 -1z"/>
<path d="M8322 3854 c1 -9 9 -19 16 -22 9 -3 13 2 10 14 -1 9 -9 19 -16 22 -9
3 -13 -2 -10 -14z"/>
<path d="M7875 3791 c-6 -11 9 -23 19 -14 9 9 7 23 -3 23 -6 0 -12 -4 -16 -9z"/>
<path d="M8332 3760 c2 -18 9 -35 16 -38 18 -6 15 43 -4 59 -14 11 -15 9 -12
-21z"/>
<path d="M8150 3770 c0 -5 7 -10 16 -10 8 0 12 5 9 10 -3 6 -10 10 -16 10 -5
0 -9 -4 -9 -10z"/>
<path d="M7820 3760 c0 -5 5 -10 10 -10 6 0 10 5 10 10 0 6 -4 10 -10 10 -5 0
-10 -4 -10 -10z"/>
<path d="M2868 3742 c-21 -9 -38 -20 -38 -24 0 -16 44 -18 76 -3 39 18 40 21
17 34 -12 6 -30 4 -55 -7z"/>
<path d="M8070 3741 c0 -6 5 -13 10 -16 6 -3 10 1 10 9 0 9 -4 16 -10 16 -5 0
-10 -4 -10 -9z"/>
<path d="M8231 3623 c-24 -27 -31 -42 -26 -60 6 -27 31 -31 39 -5 7 21 75 76
83 68 4 -3 1 -17 -6 -30 -16 -29 -11 -66 11 -80 24 -15 31 -3 34 54 2 41 -1
50 -17 55 -10 4 -19 13 -19 21 0 9 -11 14 -33 14 -26 0 -41 -8 -66 -37z"/>
<path d="M8475 3651 c-3 -5 -1 -12 5 -16 5 -3 10 1 10 9 0 18 -6 21 -15 7z"/>
<path d="M2490 3615 c0 -14 5 -25 10 -25 6 0 10 11 10 25 0 14 -4 25 -10 25
-5 0 -10 -11 -10 -25z"/>
<path d="M8105 3610 c3 -5 8 -10 11 -10 2 0 4 5 4 10 0 6 -5 10 -11 10 -5 0
-7 -4 -4 -10z"/>
<path d="M8400 3592 c0 -15 38 -44 49 -37 17 10 -6 45 -29 45 -11 0 -20 -4
-20 -8z"/>
<path d="M8515 3580 c-12 -13 -15 -27 -11 -45 5 -20 3 -25 -12 -25 -30 0 -109
-58 -133 -98 -13 -20 -23 -38 -24 -40 -1 -1 -16 3 -33 9 -42 14 -50 48 -26
100 15 35 16 42 3 50 -32 20 -45 1 -51 -74 -4 -46 -1 -60 11 -67 25 -14 -46
-141 -87 -155 -16 -6 -36 -16 -45 -24 -9 -7 -24 -11 -32 -7 -12 4 -13 11 -5
32 14 35 8 39 -29 19 -35 -17 -39 -36 -15 -60 10 -9 13 -20 8 -24 -13 -12 -74
7 -74 23 0 7 -6 19 -14 25 -11 9 -18 6 -35 -15 -20 -25 -20 -29 -6 -51 17 -25
6 -30 -25 -10 -17 10 -22 9 -29 -2 -11 -16 14 -94 35 -112 8 -6 14 -16 14 -22
0 -6 9 -20 19 -31 11 -12 33 -48 50 -81 16 -33 41 -70 54 -82 14 -11 32 -44
41 -71 10 -28 25 -54 34 -57 9 -3 38 -50 65 -103 26 -53 57 -111 70 -128 19
-28 36 -54 65 -104 5 -8 24 -46 42 -85 29 -62 53 -104 135 -235 12 -19 35 -57
51 -84 16 -27 39 -65 51 -85 12 -20 30 -52 39 -71 9 -19 28 -53 44 -75 15 -22
30 -51 33 -65 3 -14 19 -38 35 -53 l29 -27 -5 30 c-4 30 -4 31 43 34 11 1 42
5 68 10 36 6 47 12 45 25 -2 9 -17 18 -33 21 -21 4 -29 11 -27 23 2 10 -3 17
-12 17 -8 0 -16 -9 -18 -20 -5 -31 -23 -23 -21 8 2 15 -5 47 -14 70 -15 40
-19 43 -45 38 -26 -5 -28 -3 -28 23 0 16 6 31 14 34 7 3 17 23 20 44 4 21 14
48 22 61 9 13 13 30 10 38 -4 11 5 14 39 14 38 0 44 3 47 23 2 18 11 23 48 27
50 6 70 15 70 33 0 16 70 38 97 31 15 -4 25 0 32 15 16 29 28 26 46 -10 13
-24 15 -45 10 -95 -9 -78 6 -86 36 -19 18 41 19 47 4 75 -20 38 -11 84 16 77
25 -7 52 15 47 39 -3 14 -11 18 -31 17 -20 -1 -27 3 -27 16 0 10 -11 26 -24
35 -18 11 -26 27 -28 53 -2 20 -9 38 -16 41 -10 3 -12 -7 -7 -45 8 -59 -7
-103 -35 -103 -11 0 -32 -13 -47 -30 -14 -17 -32 -30 -39 -30 -7 0 -21 -8 -31
-19 -12 -12 -33 -19 -63 -19 -27 0 -82 -15 -135 -36 -49 -20 -97 -36 -105 -36
-10 0 -20 16 -27 43 -27 95 -26 100 12 137 33 32 34 35 18 53 -16 17 -16 20
-2 30 72 54 120 113 139 171 11 35 11 41 -6 53 -17 12 -17 15 -2 29 12 13 20
14 36 5 29 -15 59 -14 66 4 3 9 0 15 -10 15 -24 0 -30 31 -8 47 15 11 16 16 6
31 -7 9 -19 32 -28 50 -8 18 -20 31 -27 29 -12 -4 -12 -18 -1 -73 5 -27 2 -34
-23 -51 -15 -11 -48 -27 -73 -35 -34 -11 -46 -20 -48 -37 -2 -15 0 -21 7 -16
6 3 20 3 31 0 50 -16 -4 -139 -72 -164 -23 -8 -28 -7 -34 11 -4 15 0 26 15 37
17 13 20 23 15 47 -3 18 -2 34 4 38 7 4 5 16 -4 36 -8 16 -17 53 -20 83 -5 49
-3 55 15 60 24 6 29 27 7 27 -30 0 -48 31 -42 71 5 32 3 39 -14 44 -15 5 -18
12 -13 36 3 17 0 35 -8 45 -11 14 -10 19 9 34 21 17 22 22 12 90 -6 39 -15 80
-20 91 -6 10 -9 48 -6 84 2 36 0 68 -5 71 -16 10 -10 72 9 83 11 7 13 10 3 11
-7 0 -29 14 -48 30 -34 30 -34 30 -8 30 43 0 51 37 22 93 -24 45 -25 45 -42
27z m-79 -175 c7 -18 -21 -65 -39 -65 -7 0 -25 -16 -41 -35 -23 -27 -32 -32
-43 -24 -18 15 -16 30 7 58 14 17 26 22 43 17 20 -5 25 0 36 29 13 37 28 45
37 20z m84 -75 c0 -23 -25 -27 -33 -6 -7 16 1 26 20 26 7 0 13 -9 13 -20z
m-53 -66 c8 -22 -24 -64 -51 -64 -25 0 -43 -37 -27 -53 13 -13 60 3 72 24 11
21 44 26 55 8 3 -6 -2 -27 -11 -47 -10 -21 -21 -44 -25 -52 -11 -24 -47 -24
-55 -1 -11 37 -24 22 -27 -31 -4 -67 -26 -75 -57 -23 -17 29 -19 40 -10 57 9
18 8 24 -7 35 -21 16 -31 16 -39 3 -9 -14 -35 -12 -35 3 0 7 9 18 20 25 14 8
20 23 20 46 0 44 19 59 63 51 46 -9 80 9 72 36 -6 19 -5 19 15 9 11 -6 24 -18
27 -26z m-253 -96 c7 -12 7 -24 -1 -40 -6 -13 -15 -42 -20 -66 -10 -40 -9 -44
12 -58 15 -10 21 -22 18 -34 -6 -23 -33 -35 -33 -15 0 8 -8 22 -19 32 -10 10
-24 36 -31 58 -18 59 -25 61 -51 13 -18 -32 -31 -44 -52 -46 -16 -2 -31 -10
-34 -18 -9 -24 -33 -16 -33 11 0 38 71 105 113 105 35 0 68 22 87 58 12 25 28
25 44 0z m66 -153 c-17 -21 -30 -19 -30 5 0 24 33 46 38 24 2 -8 -2 -21 -8
-29z m259 9 c-14 -18 -24 -11 -15 11 3 9 11 13 16 10 8 -5 7 -11 -1 -21z m-39
-44 c-6 -11 -21 -20 -35 -20 -13 0 -25 -6 -28 -12 -4 -10 -7 -10 -18 -1 -7 7
-11 14 -8 15 39 25 67 38 82 38 15 0 16 -3 7 -20z m-114 -34 c8 -35 -4 -66
-26 -66 -24 0 -36 40 -20 69 15 28 38 27 46 -3z m-316 -6 c0 -5 -4 -10 -10
-10 -5 0 -10 5 -10 10 0 6 5 10 10 10 6 0 10 -4 10 -10z m146 -95 c-5 -27 -2
-38 15 -54 20 -19 21 -23 9 -46 -24 -44 -45 -32 -40 24 1 13 -7 39 -17 58 -18
34 -18 35 1 48 27 20 39 8 32 -30z m149 -25 c4 -6 27 -10 51 -9 57 3 76 -13
41 -35 -13 -9 -27 -30 -30 -46 -7 -32 -39 -55 -64 -46 -13 5 -15 17 -10 55 4
37 2 53 -9 61 -8 7 -14 16 -14 21 0 12 27 11 35 -1z m-61 -152 c12 -20 -8 -48
-34 -48 -10 0 -23 -7 -30 -15 -18 -21 -40 -19 -40 5 0 15 8 22 29 26 20 4 31
14 36 31 6 26 22 27 39 1z m184 -103 c1 -11 -4 -29 -12 -40 -14 -19 -15 -19
-26 9 -6 16 -8 36 -5 43 7 21 39 11 43 -12z m-190 -98 c2 -12 -3 -17 -17 -17
-15 0 -21 6 -21 21 0 25 33 22 38 -4z m432 -503 c0 -9 -7 -14 -17 -12 -25 5
-28 28 -4 28 12 0 21 -6 21 -16z m-100 -75 c0 -18 -2 -19 -15 -9 -8 7 -15 16
-15 21 0 5 7 9 15 9 9 0 15 -9 15 -21z m7 -51 c-3 -8 -6 -5 -6 6 -1 11 2 17 5
13 3 -3 4 -12 1 -19z"/>
<path d="M2770 3583 c1 -18 48 -65 54 -54 4 6 3 11 -3 11 -5 0 -11 10 -13 22
-3 21 -38 40 -38 21z"/>
<path d="M8747 3403 c-11 -21 -16 -62 -7 -68 14 -8 52 33 48 53 -3 18 -33 29
-41 15z"/>
<path d="M8659 3317 c-33 -17 -37 -53 -8 -60 24 -7 44 5 60 34 13 26 -19 42
-52 26z"/>
<path d="M2987 3272 c-23 -5 -18 -36 6 -40 19 -4 35 25 21 37 -5 4 -17 6 -27
3z"/>
<path d="M2740 3251 c-12 -24 -13 -41 -2 -41 8 0 32 43 32 55 0 13 -21 3 -30
-14z"/>
<path d="M7597 3247 c-4 -10 -15 -13 -34 -10 -26 5 -27 4 -12 -12 15 -15 20
-15 45 -4 28 14 35 30 16 37 -5 1 -12 -4 -15 -11z"/>
<path d="M2790 3219 c0 -7 12 -30 26 -50 20 -29 30 -36 42 -29 10 5 25 11 35
14 18 6 24 36 7 36 -5 0 -10 -5 -10 -11 0 -21 -34 -3 -40 21 -4 18 -14 26 -33
28 -17 2 -27 -1 -27 -9z"/>
<path d="M7692 3219 c2 -6 8 -10 13 -10 5 0 11 4 13 10 2 6 -4 11 -13 11 -9 0
-15 -5 -13 -11z"/>
<path d="M8786 3201 c-8 -12 3 -41 15 -41 5 0 9 11 9 25 0 25 -14 34 -24 16z"/>
<path d="M2660 3170 c0 -11 6 -20 14 -20 21 0 31 21 15 31 -22 14 -29 11 -29
-11z"/>
<path d="M7410 3167 c0 -19 10 -27 26 -20 21 8 17 33 -6 33 -11 0 -20 -6 -20
-13z"/>
<path d="M7505 3166 c-19 -13 -18 -15 17 -31 38 -19 68 -15 68 8 0 8 -11 19
-25 25 -33 15 -37 15 -60 -2z"/>
<path d="M7607 3166 c-8 -20 20 -43 35 -28 14 14 3 42 -16 42 -7 0 -16 -6 -19
-14z"/>
<path d="M2760 3150 c0 -5 5 -10 10 -10 6 0 10 5 10 10 0 6 -4 10 -10 10 -5 0
-10 -4 -10 -10z"/>
<path d="M7555 3100 c-3 -5 -23 -17 -43 -26 -36 -16 -36 -16 -14 -27 17 -8 30
-6 57 9 20 10 34 25 33 33 -4 18 -24 25 -33 11z"/>
<path d="M2727 3033 c-14 -13 -6 -33 13 -33 13 0 20 7 20 20 0 19 -20 27 -33
13z"/>
<path d="M8825 2987 c-5 -18 -3 -33 4 -40 23 -23 10 -55 -43 -113 -30 -32 -52
-62 -49 -67 3 -6 18 5 33 24 26 30 30 32 54 21 22 -10 28 -9 32 3 7 17 -1 104
-14 160 -9 40 -9 40 -17 12z"/>
<path d="M7538 2954 c-5 -4 -8 -16 -8 -28 0 -14 3 -17 11 -9 6 6 9 19 7 28 -1
9 -6 13 -10 9z"/>
<path d="M7643 2948 c-35 -44 -34 -55 7 -83 38 -26 67 -28 42 -3 -7 7 -12 26
-12 44 0 37 -22 61 -37 42z"/>
<path d="M9058 2933 c-2 -10 2 -32 9 -50 17 -42 16 -102 -2 -133 -8 -14 -17
-31 -21 -38 -4 -7 3 -23 15 -36 30 -32 28 -83 -4 -98 -14 -6 -25 -19 -25 -28
0 -9 -7 -25 -15 -36 -8 -10 -15 -25 -15 -31 0 -21 39 -15 52 7 15 24 26 25 49
4 19 -17 39 -12 39 10 0 7 9 21 20 31 11 10 20 22 20 27 0 5 9 22 21 37 15 20
19 34 12 45 -8 15 -12 13 -33 -9 -33 -35 -44 -32 -58 20 -11 40 -10 50 8 84
17 34 18 41 5 51 -8 7 -15 25 -15 41 0 16 -4 37 -10 47 -5 9 -14 29 -20 45
-11 31 -27 36 -32 10z"/>
<path d="M8970 2865 c-10 -12 -10 -15 3 -15 19 0 31 16 18 24 -5 3 -14 -1 -21
-9z"/>
<path d="M9160 2752 c0 -24 28 -62 46 -62 19 0 18 30 -2 58 -18 26 -44 29 -44
4z"/>
<path d="M2760 2656 c0 -7 7 -19 15 -26 13 -11 15 -8 15 14 0 16 -5 26 -15 26
-8 0 -15 -6 -15 -14z"/>
<path d="M8930 2650 c0 -13 5 -20 13 -17 6 2 12 10 12 17 0 7 -6 15 -12 18 -8
2 -13 -5 -13 -18z"/>
<path d="M2816 2639 c-15 -9 -16 -13 -5 -20 23 -15 39 -10 39 11 0 23 -7 24
-34 9z"/>
<path d="M9255 2621 c-8 -15 3 -31 21 -31 9 0 14 7 12 17 -4 20 -24 28 -33 14z"/>
<path d="M7067 2604 c-4 -4 -7 -14 -7 -23 0 -11 3 -12 11 -4 6 6 10 16 7 23
-2 6 -7 8 -11 4z"/>
<path d="M7330 2574 c0 -33 33 -30 38 4 3 17 -2 22 -17 22 -16 0 -21 -6 -21
-26z"/>
<path d="M7086 2525 c4 -8 10 -12 15 -9 11 6 2 24 -11 24 -5 0 -7 -7 -4 -15z"/>
<path d="M8962 2529 c2 -6 8 -10 13 -10 5 0 11 4 13 10 2 6 -4 11 -13 11 -9 0
-15 -5 -13 -11z"/>
<path d="M8906 2449 c-6 -33 -29 -38 -57 -13 -23 21 -49 11 -49 -19 0 -13 -13
-36 -30 -52 -32 -30 -41 -75 -15 -75 8 0 32 17 54 39 21 21 56 44 77 51 44 14
74 37 74 55 0 7 -11 20 -24 28 -23 15 -24 15 -30 -14z"/>
<path d="M7218 2453 c-10 -2 -18 -9 -18 -14 0 -14 16 -11 30 6 7 8 11 14 9 14
-2 -1 -12 -3 -21 -6z"/>
<path d="M1104 2376 c-7 -18 24 -66 43 -66 15 0 45 59 37 72 -9 14 -74 9 -80
-6z"/>
<path d="M9343 2348 c-38 -42 -49 -78 -23 -78 10 0 60 74 60 88 0 18 -14 14
-37 -10z"/>
<path d="M7385 2347 c-4 -9 -2 -24 5 -32 28 -33 42 -5 16 31 -14 18 -15 18
-21 1z"/>
<path d="M6810 2335 c0 -10 7 -15 18 -13 21 4 19 22 -2 26 -10 2 -16 -3 -16
-13z"/>
<path d="M9232 2308 c3 -7 15 -15 27 -16 16 -3 22 1 19 10 -3 7 -15 15 -27 16
-16 3 -22 -1 -19 -10z"/>
<path d="M7420 2268 c2 -39 130 -208 159 -208 21 0 10 24 -28 60 -21 20 -44
46 -49 57 -19 34 -82 106 -82 91z"/>
<path d="M6649 2134 c-11 -14 -10 -16 9 -12 13 1 23 7 23 13 1 17 -17 16 -32
-1z"/>
<path d="M5440 2038 c0 -13 -4 -29 -9 -37 -10 -16 16 -60 36 -61 6 0 14 18 18
41 5 31 3 45 -11 60 -23 25 -34 24 -34 -3z"/>
<path d="M6570 2052 c0 -12 19 -26 26 -19 2 2 -2 10 -11 17 -9 8 -15 8 -15 2z"/>
<path d="M6146 2038 c-1 -7 -8 -27 -13 -45 -6 -17 -8 -34 -5 -38 10 -9 63 56
60 74 -4 20 -37 27 -42 9z"/>
<path d="M6490 1951 c0 -6 5 -13 10 -16 6 -3 10 1 10 9 0 9 -4 16 -10 16 -5 0
-10 -4 -10 -9z"/>
<path d="M7095 1941 c-3 -5 -1 -12 5 -16 12 -7 30 2 30 16 0 12 -27 12 -35 0z"/>
<path d="M5387 1916 c-3 -8 0 -20 8 -26 20 -17 50 -8 50 15 0 25 -49 34 -58
11z"/>
<path d="M7060 1889 c0 -11 5 -17 10 -14 6 3 10 13 10 21 0 8 -4 14 -10 14 -5
0 -10 -9 -10 -21z"/>
<path d="M5847 1887 c-7 -19 12 -59 25 -55 22 7 21 46 0 57 -15 8 -21 7 -25
-2z"/>
<path d="M7176 1893 c-11 -11 -6 -23 9 -23 8 0 15 4 15 9 0 13 -16 22 -24 14z"/>
<path d="M5445 1875 c-3 -8 -7 -22 -10 -30 -2 -8 2 -15 10 -15 18 0 45 27 45
46 0 19 -39 18 -45 -1z"/>
<path d="M6200 1871 c0 -12 5 -21 10 -21 6 0 10 6 10 14 0 8 -4 18 -10 21 -5
3 -10 -3 -10 -14z"/>
<path d="M6800 1840 c0 -5 5 -10 10 -10 6 0 10 5 10 10 0 6 -4 10 -10 10 -5 0
-10 -4 -10 -10z"/>
<path d="M6030 1810 c-13 -25 -6 -40 21 -40 16 0 20 6 17 27 -4 34 -23 41 -38
13z"/>
<path d="M5790 1799 c0 -11 5 -17 10 -14 6 3 10 13 10 21 0 8 -4 14 -10 14 -5
0 -10 -9 -10 -21z"/>
<path d="M6430 1790 c0 -11 5 -20 10 -20 6 0 10 9 10 20 0 11 -4 20 -10 20 -5
0 -10 -9 -10 -20z"/>
<path d="M5903 1751 c3 -16 9 -39 12 -52 4 -19 -1 -28 -30 -46 -47 -31 -59
-29 -40 7 18 34 13 50 -15 50 -14 0 -19 -9 -22 -39 -3 -34 0 -41 20 -50 14 -7
20 -16 16 -23 -5 -8 -2 -9 10 -5 10 4 22 7 27 7 5 0 17 17 28 38 11 20 29 43
40 50 24 14 28 52 6 52 -8 0 -20 9 -27 20 -19 29 -31 24 -25 -9z"/>
<path d="M6250 1755 c-14 -8 -34 -17 -45 -20 -20 -6 -20 -7 -1 -21 30 -21 50
-17 69 15 26 45 22 50 -23 26z"/>
<path d="M5470 1716 c0 -17 7 -27 22 -32 13 -4 28 -14 35 -23 6 -9 15 -13 18
-9 4 4 -4 21 -19 38 -14 17 -26 36 -26 41 0 5 -7 9 -15 9 -9 0 -15 -9 -15 -24z"/>
<path d="M5997 1723 c3 -10 10 -23 14 -28 8 -10 13 -62 10 -98 -1 -13 -7 -16
-24 -12 -15 4 -28 1 -36 -9 -8 -9 -18 -16 -23 -16 -13 0 -47 -42 -48 -57 0
-15 16 -17 25 -3 3 6 19 10 34 10 17 0 39 10 55 27 28 27 53 44 95 63 14 6 31
20 38 30 8 11 23 20 33 20 36 0 34 23 -5 57 -44 38 -75 40 -90 5 -12 -28 -39
-25 -43 6 -2 14 -10 22 -22 22 -14 0 -18 -5 -13 -17z m137 -29 c27 -10 0 -44
-34 -44 -47 0 -37 28 17 49 1 1 8 -2 17 -5z"/>
<path d="M8960 1726 c0 -22 17 -28 24 -10 9 22 8 24 -9 24 -8 0 -15 -6 -15
-14z"/>
<path d="M6407 1682 c-21 -23 -21 -36 -3 -51 12 -10 21 -6 47 17 19 17 29 34
25 40 -11 18 -51 14 -69 -6z"/>
<path d="M6650 1634 c-6 -14 -10 -30 -10 -37 0 -17 27 14 35 41 9 31 -13 28
-25 -4z"/>
<path d="M5765 1611 c-7 -12 12 -24 25 -16 11 7 4 25 -10 25 -5 0 -11 -4 -15
-9z"/>
<path d="M8826 1613 c-12 -12 -6 -33 9 -33 8 0 15 6 15 14 0 17 -14 28 -24 19z"/>
<path d="M6425 1580 c-8 -14 3 -30 21 -30 8 0 14 9 14 20 0 21 -24 28 -35 10z"/>
<path d="M6260 1567 c0 -18 27 -53 35 -46 10 11 -6 59 -21 59 -8 0 -14 -6 -14
-13z"/>
<path d="M8786 1513 c15 -27 33 -55 41 -63 12 -13 15 -13 23 0 13 21 12 30 -2
30 -7 0 -26 18 -41 40 -39 55 -54 50 -21 -7z"/>
<path d="M8870 1519 c-7 -11 -9 -23 -6 -26 8 -9 36 17 36 33 0 21 -18 17 -30
-7z"/>
<path d="M5767 1483 c-4 -3 -7 -11 -7 -17 0 -6 5 -5 12 2 6 6 9 14 7 17 -3 3
-9 2 -12 -2z"/>
<path d="M5990 1466 c0 -9 7 -16 16 -16 9 0 14 5 12 12 -6 18 -28 21 -28 4z"/>
<path d="M6330 1436 c0 -9 7 -16 16 -16 17 0 14 22 -4 28 -7 2 -12 -3 -12 -12z"/>
<path d="M6028 1423 c12 -2 30 -2 40 0 9 3 -1 5 -23 4 -22 0 -30 -2 -17 -4z"/>
</g>
</svg>
